<?xml version="1.0" encoding="UTF-8"?>
<svg id="Capa_1" xmlns="http://www.w3.org/2000/svg" version="1.1" viewBox="0 0 595.28 342">
  <!-- Generator: Adobe Illustrator 30.2.1, SVG Export Plug-In . SVG Version: 2.1.1 Build 1)  -->
  <defs>
    <style>
      .st0 {
        fill: #da261b;
      }

      .st1 {
        fill: #fffffd;
        fill-rule: evenodd;
      }
    </style>
  </defs>
  <path class="st0" d="M479.05,108.24c4.1-11.05,8.33-20.32,12.36-27.57-3.92-2.05-7.95-3.96-12.03-5.79l-7.51,21.41-7.62-27.87c-3.89-1.57-7.92-3.1-11.88-4.48,4.07,16.06,8.18,30.86,12.14,44.16l-13.56,49.94c3.85-1.38,7.81-2.8,11.65-4.37l9.34-33.36,13.52,37.81c-36.2,19.13-114.76,45.05-202.63,45.05s-165.8-28.09-203-46.73l2.65-10.84c1.61-5.83,3.25-11.95,4.86-18.34,3.77.78,7.36,1.53,11.02,2.24.56,7.7.9,15.58,1.27,23.87,3.96,1.6,7.88,3.21,11.92,4.67-1.05-33.25-2.58-63.21-4.49-89.17-6.02,2.35-12.03,4.78-18.04,7.47l-26.11,90.03c16.85,13.79,109.5,55.66,219.93,55.66,118.92,0,205.51-44.38,220.23-55.4l-24.02-58.4ZM95.97,92.32c.82,9.08,1.46,18.72,1.98,28.84-2.95-.3-5.83-.6-8.7-.94,2.17-8.85,4.48-18.19,6.72-27.91Z"/>
  <path class="st0" d="M357.16,180.33v-78.6c3.17,26.26,6.31,52,9.45,77.22,3.85-.57,7.7-1.23,11.65-1.91,3.07-25.7,6.09-50.69,9.22-75.08v73.37c4.52-.93,9-1.86,13.56-2.87V49.08c-6.46-1.46-12.92-2.73-19.27-3.92l-8.18,60.59-9.33-63.55c-6.54-.94-13.01-1.79-19.47-2.5,0,47.4,0,94.77.07,142.15,4.04-.49,8.18-1.01,12.29-1.53Z"/>
  <path class="st0" d="M262.57,120.55h3.59c5.01,0,5.64,1.18,5.57,7.74v57.42h12.74v-56.08c.08-8.67-1.72-14.25-4.29-17.59,3.29-3.34,5.38-9.32,5.38-18.78v-36.17c.07-13.81-4.59-20.97-13.11-20.81-7.36.12-14.8.37-22.27.86-.23,49.24-.41,98.43-.63,147.6l13.04.97v-65.16ZM263.11,52.55c1.35-.04,2.76-.08,4.11-.08,3.89-.13,4.67,1.34,4.67,6.68,0,12.55-.07,25.13-.15,37.72.07,7.17-1.08,8.47-5.12,8.47-.11,0-.3,0-.44.08h-3.07v-52.87Z"/>
  <path class="st0" d="M218.37,181.92c4.41.49,8.71.93,13,1.3V52.36c3.96-.3,7.73-.53,11.65-.75v-14.16c-11.92.79-23.94,1.98-35.79,3.54v13.6c3.66-.37,7.44-.78,11.13-1.12v128.44Z"/>
  <path class="st0" d="M314.74,186.59c8.63-.56,14.35-7.06,16.78-17.04.57-1.94,1.02-4.15,1.02-16.17.07-29.48.07-58.95.07-88.5v-2.24c.07-16.74-7.55-26.75-17.41-27.42-10.58-.63-17.86,7.85-17.86,27.61v96.12c0,11.21,1.27,15.58,2.69,18.57,2.87,5.75,7.54,9.49,14.72,9.08ZM311.54,51.79c.19-.22.3-.45.64-.82.56-.45,1.53-1.01,2.69-.97,1.79.11,3.06.78,3.89,4.55.15,1.35.26,3.25.26,5.64.07,33.96.19,67.92.26,101.77,0,6.28-.64,6.91-.97,7.62-.89,1.53-2.09,2.17-3.25,2.24-2.06.11-3.52-.57-4.04-4.07-.26-1.42-.37-3.11-.37-5.45-.08-34.11-.08-68.25-.08-102.44,0-5.79.44-7.36.97-8.07Z"/>
  <path class="st0" d="M183.17,178.53c5.49,1.01,9.71-.37,12.85-3.62,3.32-3.55,5.72-8.26,5.72-21.93v-14.24c0-7.25-1.16-13.52-4.48-20.74-4.48-9.67-8.85-19.01-13.26-28.02-2.36-4.85-3.14-8.21-3.06-13.18v-14.5c0-4.85,1.72-6.31,3.58-6.57,1.8-.3,3.59.26,3.59,6.08v20.14c4.41-.34,8.82-.63,13.3-.89v-18.75c0-14.08-6.91-21.7-16.62-19.87-10.05,1.9-16.96,11.06-16.96,24.81v12.29c0,7.84,1.01,11.73,4.67,19.24,4.04,8.03,8.18,16.4,12.14,25.07,2.58,5.42,3.85,10.98,3.85,18.08v13.48c0,2.73-.26,4.86-.52,6.32-.49,3.2-1.64,3.84-2.61,4.03-.38.04-.9-.04-1.53-.16-.63-.07-1.16-.18-1.61-.4-.9-.49-2.43-2.02-2.43-9.97v-.3c0-6.05,0-12.14.08-18.15-4.49-.34-8.96-.67-13.45-1.05v14.72c0,4.55.45,8.37,1.16,11.73,2.43,10.27,8.37,15.02,15.62,16.36Z"/>
  <path class="st0" d="M137.38,167.68c10.2,3.14,17.55-2.81,17.48-16.07,0-33.62-.07-67.31-.18-101.01-4.38,1.16-8.9,2.31-13.38,3.55.11,32.17.19,64.37.19,96.57.11,5.94-2.25,6.35-4.3,5.87-2.06-.52-4.22-2.06-4.29-7.55V56.54c-4.41,1.34-8.9,2.72-13.3,4.21v83.64c0,11.14,7.55,20.17,17.79,23.28Z"/>
  <path class="st0" d="M442.94,150.96c-5.38,1.46-10.75,2.8-16.14,4.03v-40.75c4.93-.07,9.86-.19,14.79-.3v-9.94c-4.93-.19-9.86-.37-14.79-.56v-36.95c5.19,1.19,10.5,2.54,15.8,3.92v-9.9c-9.71-3.17-19.5-5.97-29.11-8.48-.07,39.15-.07,78.34-.07,117.41,9.79-2.46,19.73-5.33,29.51-8.66v-9.83Z"/>
  <g>
    <path class="st0" d="M377.08,253.3c-4.66,0-7.92,1.78-10.22,4.94-1.69,2.29-2.84,5.61-2.84,9.11,0,7.33,4.63,13.95,12.83,13.95,9.22,0,12.87-7.99,12.87-14.05s-4.03-13.95-12.64-13.95ZM382.13,274.16c-1.31,1.82-3.04,2.68-5.14,2.71-6.39,0-7.41-7.07-7.41-9.53,0-6.59,3.77-9.59,7.28-9.59s7.28,3.04,7.28,9.63c0,2.87-.83,5.22-2.01,6.78Z"/>
    <path class="st0" d="M149.32,254.13l-9.26,26.34h5.52l1.78-5.55h9.55l1.69,5.55h5.62l-9.04-26.34h-5.87ZM148.69,270.76l3.61-11.38,3.41,11.38h-7.03Z"/>
    <path class="st0" d="M252.63,254.13l-9.26,26.34h5.52l1.79-5.55h9.54l1.69,5.55h5.62l-9.03-26.34h-5.87ZM252,270.76l3.61-11.38,3.42,11.38h-7.03Z"/>
    <polygon class="st0" points="343.24 273.66 337.53 254.13 331.69 254.13 340.56 280.47 345.77 280.47 354.86 254.13 349.02 254.16 343.24 273.66"/>
    <path class="st0" d="M419.28,265.34l-6.29-1.59c-1.85-.48-2.07-.7-2.46-1.12-.45-.48-.68-1.05-.68-1.72,0-1.53,1.28-3.34,5.05-3.34,1.85,0,3.26.63,4.02,1.37.73.73,1.18,1.75,1.25,2.87l5.24.06c-.22-2.9-1.18-4.69-2.65-5.99-1.5-1.37-4.31-2.64-8.17-2.64-6.99,0-10.19,3.92-10.19,8.25,0,3.35,1.85,6.09,6.52,7.24l5.36,1.37c.99.25,2.39.41,3.26,1.53.44.58.67,1.27.67,1.75,0,1.72-1.28,3.63-5.59,3.63s-5.87-2.14-5.78-4.78l-5.36-.03c0,4.87,3.64,9.17,11.3,9.17s11.08-4.1,11.08-8.57c0-3.31-2.04-6.3-6.58-7.46Z"/>
    <path class="st0" d="M292.06,265.34l-6.29-1.59c-1.85-.48-2.07-.7-2.46-1.12-.42-.48-.64-1.05-.64-1.72,0-1.53,1.25-3.34,5.02-3.34,1.85,0,3.26.63,4.02,1.37.74.73,1.18,1.75,1.25,2.87l5.24.06c-.22-2.9-1.18-4.69-2.65-5.99-1.5-1.37-4.31-2.64-8.17-2.64-6.96,0-10.15,3.92-10.15,8.25,0,3.35,1.85,6.09,6.48,7.24l5.36,1.37c.99.25,2.39.41,3.26,1.53.45.58.67,1.27.67,1.75,0,1.72-1.28,3.63-5.59,3.63s-5.84-2.14-5.75-4.78l-5.36-.03c0,4.87,3.64,9.17,11.27,9.17s11.08-4.1,11.08-8.57c0-3.31-2.04-6.3-6.58-7.46Z"/>
    <path class="st0" d="M232.3,273.08c-.16-1.91-.61-2.74-1.34-3.5-.83-.86-2.14-1.5-3.48-1.6,3.41-.38,5.75-2.96,5.75-6.47,0-4.17-3.29-7.68-8.88-7.39h-12.09l-.04,26.34h5.46l.03-10.41,4.76.03c1.91,0,3.26.8,4.02,2.16.29.51.41,1.12.54,1.66.54,2.17-.03,4.49,1.02,6.56h5.52c-.35-.6-.73-1.69-.83-2.77l-.44-4.62ZM223.55,265.88l-5.87-.03v-7.33l6.04.03c1.47,0,1.88.2,2.46.54,1.05.68,1.69,1.95,1.69,3.16,0,1.97-1.56,3.66-4.31,3.63Z"/>
    <path class="st0" d="M190.35,266.36c2.68-.77,4.24-2.87,4.24-5.57,0-2.52-1.08-4.43-3-5.61-1.09-.7-2.11-1.05-4.44-1.05h-13.12v26.34h13.57c2.46,0,3.68-.41,4.98-1.34,1.89-1.3,2.97-3.31,2.97-5.96,0-3.44-1.98-5.96-5.2-6.82ZM179.53,258.33h6.93c1.18,0,2.97,1.08,2.97,3.21,0,1.75-1.4,3.21-3.39,3.21l-6.51-.06v-6.37ZM186.01,276.2l-6.48-.03v-7.52h6.48c2.4,0,3.93,1.69,3.93,3.66,0,2.17-1.66,3.89-3.93,3.89Z"/>
    <rect class="st0" x="316.32" y="254.13" width="5.56" height="26.34"/>
  </g>
  <path class="st0" d="M519.66,137.95c-7.13,0-12.81,5.69-12.81,12.76s5.66,12.72,12.77,12.72,12.74-5.72,12.74-12.77-5.72-12.71-12.7-12.71ZM519.62,161.4c-5.96,0-10.74-4.77-10.74-10.69s4.78-10.79,10.71-10.79,10.79,4.82,10.79,10.76-4.81,10.72-10.76,10.72Z"/>
  <path class="st0" d="M525.78,147.15c0-2.26-1.64-4-4.29-4h-7.36v14.5h2.97v-5.8h2.87c1.29,0,2.63,1.04,2.63,3.39,0,1.73.06,1.91.2,2.4h2.79c-.36-1.43.03-2.93-.31-4.36-.37-1.58-1.38-2.38-2.32-2.51,1.61-.31,2.83-1.74,2.83-3.63ZM520.83,149.72l-3.78-.04v-4.18h3.67c1.26,0,2.17.97,2.17,2.11s-.96,2.13-2.06,2.11Z"/>
  <polygon class="st1" points="482.29 156.88 482.35 156.88 482.35 156.81 482.29 156.81 482.29 156.88 482.29 156.88"/>
  <polygon class="st1" points="482.29 156.69 482.35 156.69 482.35 156.75 482.41 156.75 482.41 156.69 482.53 156.69 482.53 156.63 482.41 156.63 482.41 156.69 482.35 156.69 482.35 156.63 482.29 156.63 482.29 156.69 482.29 156.69"/>
  <polygon class="st1" points="482.77 156.99 482.77 156.88 482.65 156.88 482.65 156.93 482.59 156.93 482.59 156.88 482.53 156.88 482.53 156.93 482.59 156.93 482.59 157.05 482.65 157.05 482.65 156.99 482.77 156.99 482.77 156.99"/>
  <polygon class="st1" points="482.65 156.69 482.71 156.69 482.71 156.63 482.77 156.63 482.77 156.75 482.65 156.75 482.65 156.69 482.59 156.69 482.59 156.63 482.65 156.63 482.65 156.69 482.65 156.69"/>
</svg>