<?xml version="1.0" encoding="UTF-8"?>
<svg id="Capa_1" xmlns="http://www.w3.org/2000/svg" version="1.1" viewBox="0 0 595.28 326">
  <!-- Generator: Adobe Illustrator 30.2.1, SVG Export Plug-In . SVG Version: 2.1.1 Build 1)  -->
  <defs>
    <style>
      .st0 {
        fill: #252523;
      }

      .st1 {
        fill: #424436;
      }

      .st2 {
        fill: #fff;
      }

      .st3 {
        fill-rule: evenodd;
      }

      .st3, .st4 {
        fill: #adb5b2;
      }

      .st5 {
        fill: #d43116;
      }

      .st6 {
        fill: #808181;
      }
    </style>
  </defs>
  <polygon class="st1" points="233.78 261.9 267.12 261.9 267.12 193 233.78 227.54 233.78 261.9"/>
  <polygon class="st6" points="117.33 261.9 117.33 156.61 147.96 183.58 175.94 154.17 81.64 69.59 81.64 261.9 117.33 261.9"/>
  <polygon class="st5" points="221.57 185.99 154.8 185.98 267.12 69.73 267.12 118.72 233.78 153.75 267.12 153.75 267.12 184.58 194.55 261.9 149.61 261.9 221.57 185.99"/>
  <polygon class="st4" points="295.6 165.82 307.67 184.65 307.82 184.65 318.57 165.82 334.09 165.82 334.09 205.11 323.77 215.97 323.77 180.43 323.62 180.43 311.68 200.31 303.17 200.31 290.53 180.78 290.4 180.78 290.4 251.12 280.07 262 280.07 165.82 295.6 165.82"/>
  <path class="st0" d="M362.78,187.48c-1.1-1.21-2.77-1.82-5.01-1.82-1.47,0-2.68.25-3.65.75-.97.49-1.75,1.11-2.33,1.85-.57.73-.98,1.5-1.22,2.32-.23.82-.38,1.55-.42,2.2h14.94c-.44-2.32-1.19-4.09-2.3-5.3ZM352.41,205.06c1.38,1.34,3.36,2,5.95,2,1.85,0,3.45-.46,4.78-1.39,1.34-.93,2.16-1.91,2.46-2.94h8.08c-1.29,4.01-3.28,6.87-5.95,8.6-2.67,1.73-5.91,2.58-9.7,2.58-2.63,0-5-.42-7.11-1.26-2.11-.84-3.9-2.03-5.36-3.59-1.46-1.55-2.6-3.4-3.39-5.56-.8-2.15-1.2-4.52-1.2-7.11s.41-4.82,1.23-6.98c.81-2.15,1.97-4.02,3.49-5.59,1.51-1.57,3.31-2.81,5.4-3.71,2.09-.9,4.41-1.35,6.95-1.35,2.84,0,5.32.55,7.43,1.65,2.12,1.09,3.85,2.57,5.22,4.42,1.35,1.86,2.33,3.96,2.93,6.34.61,2.37.82,4.84.65,7.43h-24.11c.13,2.97.88,5.13,2.27,6.47h0Z"/>
  <path class="st0" d="M413.98,204.77c.41.71.93,1.29,1.58,1.75.65.45,1.38.79,2.23,1,.84.21,1.71.32,2.61.32.65,0,1.33-.08,2.04-.23.71-.15,1.36-.38,1.94-.71.58-.32,1.07-.76,1.46-1.29.39-.54.58-1.22.58-2.04,0-1.38-.92-2.41-2.75-3.1-1.84-.69-4.39-1.38-7.67-2.06-1.33-.31-2.63-.66-3.9-1.07-1.28-.41-2.41-.94-3.4-1.61-.99-.67-1.79-1.51-2.4-2.52-.6-1.01-.9-2.25-.9-3.71,0-2.16.42-3.92,1.26-5.3.84-1.38,1.95-2.46,3.32-3.26,1.38-.8,2.94-1.36,4.66-1.68,1.72-.32,3.48-.48,5.3-.48s3.57.17,5.27.52c1.7.35,3.22.93,4.56,1.74,1.33.82,2.45,1.91,3.32,3.27.89,1.36,1.42,3.07,1.59,5.14h-8.72c-.14-1.77-.8-2.96-2.01-3.59-1.21-.63-2.63-.94-4.26-.94-.52,0-1.08.03-1.68.1-.6.06-1.16.2-1.65.42-.5.22-.92.53-1.26.94-.34.41-.52.96-.52,1.64,0,.82.31,1.49.9,2.01.6.52,1.4.93,2.35,1.26.97.32,2.08.61,3.33.87,1.25.26,2.53.54,3.82.84,1.33.3,2.64.67,3.91,1.1,1.27.43,2.4,1,3.4,1.71.99.71,1.79,1.6,2.39,2.65.6,1.06.91,2.36.91,3.91,0,2.2-.44,4.04-1.32,5.53-.88,1.49-2.04,2.68-3.46,3.59-1.42.9-3.05,1.54-4.88,1.91-1.83.37-3.69.54-5.59.54s-3.84-.19-5.68-.58c-1.86-.39-3.51-1.04-4.95-1.93-1.44-.91-2.63-2.1-3.56-3.59-.93-1.49-1.43-3.35-1.52-5.59h8.73c0,.99.2,1.84.61,2.55h0Z"/>
  <path class="st0" d="M449.74,200.31c.26,1.27.7,2.41,1.32,3.43.62,1.01,1.46,1.82,2.49,2.42,1.03.61,2.33.91,3.88.91s2.86-.3,3.91-.91c1.05-.61,1.89-1.41,2.52-2.42.62-1.01,1.07-2.16,1.32-3.43.26-1.27.39-2.58.39-3.91s-.13-2.65-.39-3.95c-.25-1.29-.69-2.44-1.32-3.42-.63-.99-1.47-1.8-2.52-2.43-1.05-.63-2.37-.93-3.91-.93s-2.85.3-3.88.93c-1.03.63-1.86,1.43-2.49,2.43-.62.99-1.06,2.13-1.32,3.42-.26,1.3-.39,2.61-.39,3.95s.13,2.64.39,3.91ZM441.39,189.13c.82-2.18,1.98-4.03,3.49-5.56,1.51-1.53,3.32-2.71,5.43-3.55,2.12-.84,4.49-1.26,7.12-1.26s5.01.42,7.14,1.26c2.13.84,3.95,2.02,5.47,3.55,1.5,1.53,2.67,3.39,3.48,5.56.82,2.18,1.24,4.6,1.24,7.27s-.42,5.09-1.24,7.24c-.81,2.16-1.98,4-3.48,5.53-1.51,1.53-3.33,2.71-5.47,3.53-2.14.82-4.52,1.23-7.14,1.23s-5-.41-7.12-1.23c-2.11-.82-3.92-1.99-5.43-3.53-1.51-1.53-2.68-3.37-3.49-5.53-.82-2.15-1.22-4.56-1.22-7.24s.41-5.1,1.22-7.27Z"/>
  <polygon class="st0" points="488.47 213.92 479.29 213.92 479.29 167.76 488.47 167.76 488.47 213.92"/>
  <path class="st0" d="M387.79,178.73v1.91s1.41-1.91,6.56-1.91c4.51,0,6.5.35,6.5.35v8.71c-.44-.09-.96-.16-1.57-.24-.62-.06-1.21-.1-1.78-.1-1.72,0-3.17.29-4.36.86-1.18.57-2.14,1.35-2.87,2.35-.72.98-1.24,2.13-1.55,3.46-.31,1.32-.46,2.75-.46,4.28v15.37h-9.37v-35.02l8.9-.02h0Z"/>
  <polygon class="st0" points="345.66 226.9 345.66 222.34 428.1 222.34 423.76 226.9 345.66 226.9"/>
  <polygon class="st0" points="488.47 222.34 472.21 222.34 476.5 226.9 488.47 226.9 488.47 222.34"/>
  <polygon class="st0" points="471.67 222.34 454.62 222.34 454.62 218.58 445.55 218.58 445.55 222.34 428.1 222.34 432.42 226.9 445.55 226.9 445.55 261.88 454.62 261.88 454.62 226.9 467.31 226.9 471.67 222.34"/>
  <path class="st0" d="M346.09,262v-1.68s-1.88,1.68-10.25,1.68c-6.18,0-8.88-2.08-9.71-3.08-.94-1.13-1.53-2.6-1.88-4.28-.37-1.68-.55-3.55-.55-5.6v-23.59l9.08-9.63v31.56c0,2.73.43,4.77,1.29,6.11.85,1.34,2.37,2.02,4.54,2.02,2.47,0,4.26-.74,5.37-2.21,1.11-1.47,1.67-3.89,1.67-7.25v-17.34h9.08v33.3s-8.64,0-8.64,0Z"/>
  <path class="st0" d="M365.5,228.7v1.61s1.34-1.82,6.25-1.82c4.31,0,6.2.33,6.2.33v8.29c-.42-.08-.93-.16-1.51-.22-.59-.07-1.16-.09-1.7-.09-1.64,0-3.02.27-4.15.81-1.12.54-2.04,1.3-2.74,2.24-.69.94-1.18,2.04-1.47,3.29-.29,1.26-.44,2.62-.44,4.09v14.65h-8.93v-33.18h8.49,0Z"/>
  <path class="st0" d="M400.81,236.88c-1.03-1.13-2.61-1.71-4.72-1.71-1.39,0-2.53.24-3.44.7-.92.47-1.66,1.05-2.2,1.75-.55.68-.94,1.42-1.16,2.18-.22.77-.36,1.47-.4,2.08h14.08c-.4-2.2-1.13-3.87-2.16-5.01ZM391.02,253.47c1.31,1.25,3.17,1.89,5.61,1.89,1.75,0,3.25-.44,4.51-1.32,1.26-.87,2.04-1.8,2.33-2.77h7.62c-1.22,3.78-3.09,6.49-5.6,8.11-2.53,1.63-5.57,2.44-9.15,2.44-2.48,0-4.71-.4-6.71-1.19-1.99-.8-3.68-1.92-5.06-3.39-1.38-1.46-2.45-3.21-3.2-5.25-.76-2.03-1.13-4.26-1.13-6.7s.39-4.55,1.16-6.58c.78-2.03,1.87-3.78,3.29-5.26,1.42-1.49,3.12-2.66,5.09-3.51,1.97-.85,4.16-1.28,6.56-1.28,2.69,0,5.02.52,7.01,1.56,1.99,1.03,3.62,2.42,4.91,4.18,1.28,1.74,2.2,3.73,2.77,5.97.56,2.23.77,4.57.61,7.01h-22.74c.12,2.8.83,4.84,2.13,6.1h0Z"/>
  <path class="st0" d="M422.82,253.22c.39.67.88,1.22,1.5,1.65.61.43,1.31.75,2.1.95.8.2,1.62.3,2.48.3.61,0,1.26-.07,1.93-.21.68-.14,1.29-.37,1.84-.68.55-.3,1.01-.71,1.37-1.22.37-.51.55-1.15.55-1.92,0-1.31-.87-2.29-2.59-2.94-1.74-.65-4.15-1.3-7.25-1.96-1.27-.28-2.5-.62-3.7-1-1.21-.39-2.28-.9-3.21-1.54-.94-.63-1.69-1.43-2.27-2.39-.57-.96-.86-2.13-.86-3.52,0-2.03.4-3.71,1.2-5.01.8-1.3,1.85-2.33,3.16-3.09,1.3-.75,2.77-1.28,4.4-1.59,1.64-.3,3.31-.46,5.02-.46s3.38.17,4.98.49c1.62.33,3.05.88,4.31,1.65,1.27.78,2.32,1.8,3.15,3.09.83,1.29,1.34,2.9,1.51,4.86h-8.27c-.12-1.67-.75-2.79-1.9-3.39-1.14-.59-2.49-.89-4.04-.89-.49,0-1.02.03-1.59.09-.57.06-1.09.2-1.56.4-.46.2-.87.5-1.18.89-.33.38-.5.9-.5,1.55,0,.78.29,1.41.86,1.9.57.49,1.32.89,2.24,1.2.91.31,1.97.58,3.15.82,1.18.25,2.39.52,3.62.8,1.26.28,2.5.63,3.7,1.04,1.2.41,2.27.95,3.21,1.62.93.67,1.69,1.51,2.27,2.51.56,1,.85,2.24.85,3.7,0,2.08-.42,3.83-1.25,5.22-.84,1.42-1.93,2.56-3.28,3.41-1.35.86-2.89,1.46-4.62,1.8-1.74.35-3.5.53-5.3.53s-3.63-.19-5.38-.56c-1.75-.36-3.32-.98-4.69-1.83-1.36-.86-2.49-1.99-3.36-3.39-.88-1.41-1.36-3.18-1.44-5.3h8.27c0,.94.2,1.75.58,2.42h0Z"/>
  <path class="st0" d="M477.44,236.85c-1.03-1.14-2.62-1.71-4.73-1.71-1.39,0-2.54.23-3.46.7-.92.47-1.65,1.05-2.21,1.74-.55.69-.94,1.43-1.16,2.2-.23.77-.35,1.46-.39,2.08h14.13c-.41-2.2-1.12-3.88-2.17-5.02h0ZM467.63,253.5c1.3,1.27,3.17,1.89,5.62,1.89,1.75,0,3.26-.44,4.53-1.32,1.27-.87,2.04-1.81,2.32-2.78h7.65c-1.22,3.79-3.09,6.51-5.62,8.14-2.54,1.64-5.6,2.45-9.18,2.45-2.49,0-4.74-.4-6.72-1.19-2.01-.8-3.71-1.92-5.09-3.4-1.38-1.46-2.46-3.21-3.21-5.26-.76-2.04-1.13-4.28-1.13-6.73s.39-4.57,1.16-6.61c.77-2.03,1.88-3.79,3.31-5.28,1.43-1.49,3.13-2.67,5.11-3.52,1.98-.86,4.17-1.29,6.58-1.29,2.69,0,5.04.52,7.04,1.57,2,1.04,3.64,2.43,4.93,4.18,1.29,1.76,2.21,3.75,2.78,6,.58,2.24.77,4.59.61,7.03h-22.82c.12,2.82.83,4.86,2.15,6.12h0Z"/>
  <polygon class="st1" points="118.85 261.9 124.35 259.37 124.35 164.58 118.85 159.86 118.85 261.9"/>
  <polygon class="st2" points="177.08 153.74 180.01 153.35 87.57 71.35 83.37 69.59 177.08 153.74"/>
  <polygon class="st5" points="268.13 118.47 273.88 116.01 273.88 70.64 268.14 69.73 268.13 118.47"/>
  <polygon class="st1" points="268.04 261.9 273.88 259.46 273.88 190.22 268.04 192.73 268.04 261.9"/>
  <polygon class="st5" points="268.04 184.29 273.88 182.22 273.88 152.72 268.04 153.75 268.04 184.29"/>
  <polygon class="st5" points="307.13 225.06 320.11 227.81 286.5 262 304.53 232.16 292.06 229.35 323.69 201.02 307.13 225.06"/>
  <path class="st3" d="M498.49,162.82h2.4v-4.6h2.55c1.8,0,1.9.62,1.9,2.23,0,1.21.09,1.81.27,2.37h2.73v-.31c-.54-.21-.54-.61-.54-2.34,0-2.19-.52-2.55-1.49-2.98,1.18-.39,1.82-1.5,1.82-2.8,0-1.02-.56-3.31-3.7-3.31h-5.94v11.75h0ZM500.9,156.23v-3.14h3.07c1.43,0,1.7.92,1.7,1.53,0,1.18-.61,1.6-1.88,1.6h-2.89Z"/>
  <path class="st3" d="M503.2,146.42c5.76,0,10.44,4.7,10.44,10.46s-4.68,10.44-10.44,10.44-10.43-4.69-10.43-10.44,4.7-10.46,10.43-10.46ZM503.2,148.25c4.75,0,8.62,3.88,8.62,8.62s-3.87,8.63-8.62,8.63-8.63-3.87-8.63-8.63,3.88-8.62,8.63-8.62Z"/>
</svg>